<svg width="80" height="21" viewBox="0 0 80 21" fill="none" xmlns="http://www.w3.org/2000/svg">
<path d="M12.8565 18.3865H1.70947C0.811758 18.3865 0.0839272 17.666 0.0839272 16.7773V6.92424C0.0839272 6.35063 0.371021 5.817 0.851705 5.49673L8.78498 0.205599C9.19542 -0.0686052 9.72703 -0.0686053 10.1379 0.206033L18.0712 5.49673C18.5514 5.81743 18.8381 6.35063 18.8381 6.92381V18.373H16.8188V7.32621C16.8188 7.16716 16.7389 7.01854 16.6059 6.92989L9.73098 2.34491C9.56768 2.23627 9.35433 2.23627 9.19147 2.34491L2.31615 6.93033C2.18314 7.01898 2.10324 7.16759 2.10324 7.32664V15.9095C2.10324 16.1737 2.31922 16.3875 2.58612 16.3875H11.9799C12.2468 16.3875 12.4628 16.1737 12.4628 15.9095V9.4464C12.4628 9.28735 12.3829 9.13873 12.2499 9.05008L9.73098 7.3701C9.56768 7.26146 9.35433 7.26146 9.19147 7.3701L6.6726 9.05008C6.53959 9.13873 6.45969 9.28735 6.45969 9.4464V13.9327H4.44038V8.8441C4.44038 8.39521 4.6647 7.97804 5.0409 7.72773L8.85126 5.18646C9.2222 4.94398 9.70113 4.94398 10.0716 5.18646L10.0791 5.19124L13.8829 7.72817C14.2586 7.97934 14.4825 8.39608 14.4825 8.84367V16.7769C14.4825 17.6656 13.7547 18.386 12.857 18.386L12.8565 18.3865Z" fill="white"></path>
<path d="M29.1967 16.9826C25.3994 16.9826 22.8911 14.4743 22.8911 10.6422C22.8911 6.91462 25.5213 4.30181 29.336 4.30181C31.0779 4.30181 32.663 4.9463 33.8649 6.18303L32.5585 7.48944C31.7398 6.67076 30.5031 6.18303 29.3186 6.18303C26.7232 6.18303 24.9291 7.97716 24.9291 10.6422C24.9291 13.3596 26.6013 15.1014 29.1967 15.1014C30.416 15.1014 31.4088 14.7879 32.2798 14.1086V11.6003H28.8657V9.80613H34.161V14.9795C32.8023 16.3382 31.1998 16.9826 29.1967 16.9826Z" fill="white"></path>
<path d="M39.1647 16.913C36.9699 16.913 35.5416 15.3453 35.5416 12.8892V8.13393H37.4925V12.7673C37.4925 14.2827 38.2589 15.1537 39.513 15.1537C40.9414 15.1537 41.8994 14.1086 41.8994 12.6628V8.13393H43.8503V16.7388H42.1084L42.091 15.624C41.3594 16.4775 40.3491 16.913 39.1647 16.913Z" fill="white"></path>
<path d="M49.6044 16.9826C46.7651 16.9826 44.9361 15.1885 44.9361 12.4364C44.9361 9.77129 46.7303 7.95974 49.3953 7.95974C52.4262 7.95974 54.0984 9.94548 53.8197 13.1679H46.9393C47.0961 14.4221 48.1412 15.2234 49.6566 15.2234C50.6321 15.2234 51.6075 14.875 52.1301 14.335L53.3146 15.4846C52.461 16.4078 51.085 16.9826 49.6044 16.9826ZM46.9567 11.6525H51.9559C51.8165 10.4332 50.8759 9.64936 49.4476 9.64936C48.0889 9.64936 47.2006 10.3809 46.9567 11.6525Z" fill="white"></path>
<path d="M58.438 16.9478C56.9922 16.9478 55.7032 16.5298 54.5536 15.6762L55.4594 14.2653C56.2258 14.875 57.358 15.2234 58.4902 15.2234C59.5876 15.2234 60.2147 14.875 60.2147 14.2479C60.2147 13.6383 59.6573 13.3421 58.3335 13.2028C56.0864 12.9938 54.8149 12.0531 54.8149 10.5551C54.8149 8.98745 56.3129 7.9249 58.5425 7.9249C59.8489 7.9249 60.9985 8.25586 61.9565 8.91777L61.103 10.3113C60.3366 9.82355 59.5179 9.57968 58.6296 9.57968C57.3928 9.57968 56.7309 9.92806 56.7309 10.5551C56.7309 11.1125 57.2361 11.4087 58.4902 11.548C61.0334 11.8267 62.1482 12.6454 62.1482 14.2653C62.1482 15.8678 60.6676 16.9478 58.438 16.9478Z" fill="white"></path>
<path d="M67.4463 16.8607C65.6696 16.8607 64.6244 15.833 64.6244 13.7776V9.78871H63.0045V8.13393H64.6244V5.88691L66.5579 5.67789V8.13393H69.0314V9.78871H66.5579V13.7776C66.5579 14.6485 66.9585 15.1363 67.7598 15.1363C68.1082 15.1363 68.5088 15.0317 68.8398 14.875L69.3797 16.4427C68.7178 16.7388 68.1604 16.8607 67.4463 16.8607Z" fill="white"></path>
<path d="M71.7928 20.7103L73.5347 16.6865L70.1381 8.13393H72.2283L73.7263 12.0531L74.6147 14.5266L75.6075 12.0531L77.2275 8.13393H79.3177L73.9179 20.7103H71.7928Z" fill="white"></path>
</svg>