<svg width="80" height="80" viewBox="0 0 80 80" fill="none" xmlns="http://www.w3.org/2000/svg">
<g clip-path="url(#clip0_4_2326)">
<path d="M41.9299 65.2501L20.6899 65.4701C19.2699 65.4801 18.0099 64.5601 17.5699 63.2001L5.54992 26.1001C4.87992 24.0301 6.37992 21.9201 8.52992 21.9001L40.2699 21.5701C41.6899 21.5601 42.9499 22.4801 43.3899 23.8401L55.4099 60.9501C56.0799 63.0201 54.5799 65.1301 52.4299 65.1501" fill="white"/>
<path d="M41.9299 65.2501L20.6899 65.4701C19.2699 65.4801 18.0099 64.5601 17.5699 63.2001L5.54992 26.1001C4.87992 24.0301 6.37992 21.9201 8.52992 21.9001L40.2699 21.5701C41.6899 21.5601 42.9499 22.4801 43.3899 23.8401L55.4099 60.9501C56.0799 63.0201 54.5799 65.1301 52.4299 65.1501" stroke="#072C23" stroke-width="1.5" stroke-linecap="round" stroke-linejoin="round"/>
<path d="M23.0997 48.04H17.2997C16.2797 48.04 15.1997 47.21 14.8797 46.19L13.1097 40.39C12.7997 39.37 13.3697 38.54 14.3997 38.54H20.1997C21.2197 38.54 22.2997 39.37 22.6197 40.39L24.3897 46.19C24.6997 47.21 24.1297 48.04 23.0997 48.04Z" fill="#19C0A2"/>
<path d="M28.2199 61.46H22.4199C21.3999 61.46 20.3199 60.63 19.9999 59.61L18.2299 53.81C17.9199 52.79 18.4899 51.96 19.5199 51.96H25.3199C26.3399 51.96 27.4199 52.79 27.7399 53.81L29.5099 59.61C29.8199 60.63 29.2499 61.46 28.2199 61.46Z" fill="#19C0A2"/>
<path d="M16.6797 41.62L19.8997 45.96L22.2697 38.53" stroke="#072C23" stroke-width="1.5" stroke-linecap="round" stroke-linejoin="round"/>
<path d="M19.2101 34.6201H13.4101C12.3901 34.6201 11.3101 33.7901 10.9901 32.7701L9.2201 26.9701C8.9101 25.9501 9.4801 25.1201 10.5101 25.1201H16.3101C17.3301 25.1201 18.4101 25.9501 18.7301 26.9701L20.5001 32.7701C20.8101 33.7901 20.2401 34.6201 19.2101 34.6201Z" fill="#19C0A2"/>
<path d="M12.7793 28.2001L16.0093 32.5401L18.3793 25.1101" stroke="#072C23" stroke-width="1.5" stroke-linecap="round" stroke-linejoin="round"/>
<path d="M72.9901 29.6501L41.9301 54.4201L36.1301 53.3701L36.4201 47.4901L30.6201 46.4701L30.9101 40.5901L61.9601 15.8201L72.9901 29.6501Z" fill="#072C23"/>
<path d="M35.2803 48.3899L67.6403 22.9399" stroke="#19C0A2" stroke-width="1.5" stroke-linecap="round" stroke-linejoin="round"/>
<path d="M41.9297 54.4201C40.9397 55.2101 39.7497 55.7301 38.4997 55.9201L25.2097 57.9201C24.1997 58.0801 23.3997 57.0701 23.7697 56.1201L28.6797 43.6101C29.1397 42.4301 29.9097 41.3901 30.9097 40.5901L30.6197 46.4701L36.4197 47.4901L36.1397 53.3701L41.9397 54.4201H41.9297Z" fill="#19C0A2"/>
<path d="M31.0499 57.04L25.1999 57.92C24.1899 58.08 23.3899 57.07 23.7599 56.12L26.0699 50.25L31.0499 57.04Z" fill="#072C23"/>
<path d="M68.4498 33.64C67.8698 33.64 67.2998 33.48 66.7998 33.19L60.7198 29.63C60.0198 29.22 59.4998 28.57 59.2598 27.79L57.1398 21.07C56.7398 19.79 57.1698 18.37 58.2198 17.54L61.1098 15.23C61.6798 14.77 62.4098 14.52 63.1398 14.52C63.7198 14.52 64.2898 14.68 64.7898 14.97L70.8699 18.53C71.5698 18.94 72.0898 19.59 72.3298 20.36L74.4498 27.08C74.8498 28.36 74.4198 29.78 73.3699 30.61L70.4798 32.92C69.8998 33.38 69.1798 33.63 68.4498 33.63V33.64Z" fill="#19C0A2"/>
<path d="M63.1498 15.53C63.5398 15.53 63.9398 15.63 64.2898 15.84L70.3698 19.4C70.8498 19.68 71.2198 20.14 71.3798 20.67L73.4998 27.39C73.7798 28.28 73.4798 29.26 72.7498 29.84L69.8598 32.15C69.4498 32.48 68.9498 32.64 68.4498 32.64C68.0598 32.64 67.6598 32.54 67.3098 32.33L61.2298 28.77C60.7498 28.49 60.3798 28.03 60.2198 27.5L58.0998 20.78C57.8198 19.89 58.1198 18.91 58.8498 18.33L61.7398 16.02C62.1498 15.69 62.6498 15.53 63.1498 15.53ZM63.1498 13.53C62.1898 13.53 61.2398 13.86 60.4898 14.46L57.5998 16.77C56.2298 17.86 55.6698 19.72 56.1898 21.39L58.3098 28.11C58.6298 29.12 59.3098 29.97 60.2198 30.51L66.2998 34.07C66.9498 34.45 67.6998 34.65 68.4598 34.65C69.4198 34.65 70.3698 34.32 71.1198 33.72L74.0098 31.41C75.3798 30.32 75.9498 28.46 75.4198 26.79L73.2998 20.07C72.9798 19.06 72.2998 18.21 71.3898 17.67L65.3098 14.11C64.6598 13.73 63.9098 13.53 63.1498 13.53Z" fill="white"/>
<path d="M67.0295 28.0201L69.3595 26.1601L68.1095 22.2201L64.5495 20.1301L62.2295 21.9901L63.4695 25.9301L67.0295 28.0201Z" fill="#072C23"/>
</g>
<defs>
<clipPath id="clip0_4_2326">
<rect width="71.22" height="52.94" fill="white" transform="translate(4.38965 13.53)"/>
</clipPath>
</defs>
</svg>
